<svg xmlns="http://www.w3.org/2000/svg" version="1.1" xmlns:xlink="http://www.w3.org/1999/xlink" xmlns:svgjs="http://svgjs.com/svgjs" width="1280" height="720" preserveAspectRatio="none" viewBox="0 0 1280 720"><g mask="url(&quot;#SvgjsMask1001&quot;)" fill="none"><path d="M121.69 748.41C231.4 742.25 313.95 543.66 510.44 543.35 706.93 543.04 704.81 633.35 899.18 633.35 1093.56 633.35 1188.17 543.93 1287.93 543.35" stroke="rgba(46, 118, 110, 1)" stroke-width="2"></path><path d="M247.93 792.44C438.07 765.61 512.63 338.51 853.54 319.98 1194.46 301.45 1302.67 162.88 1459.16 161.58" stroke="rgba(46, 118, 110, 1)" stroke-width="2"></path><path d="M636.66 749.32C726.43 738.37 676.11 553.95 928.77 535.97 1181.43 517.99 1349.56 248.99 1512.99 240.77" stroke="rgba(46, 118, 110, 1)" stroke-width="2"></path><path d="M625.55 730.95C740.8 666.58 642.32 310.86 894.2 276.37 1146.09 241.88 1290.96 112.63 1431.51 110.77" stroke="rgba(46, 118, 110, 1)" stroke-width="2"></path><path d="M429.11 767.7C544.52 740.37 508.49 432.04 763.58 431.27 1018.66 430.5 1261.06 581.53 1432.51 582.47" stroke="rgba(46, 118, 110, 1)" stroke-width="2"></path></g><defs><mask id="SvgjsMask1001"><rect width="1280" height="720" fill="#ffffff"></rect></mask></defs></svg>